<svg viewBox="0 0 32 32" xmlns="http://www.w3.org/2000/svg"><g data-name="Layer 2"><path d="M28 9H11a1 1 0 010-2h17a1 1 0 010 2zM7 9H4a1 1 0 010-2h3a1 1 0 010 2zM21 17H4a1 1 0 010-2h17a1 1 0 010 2zM11 25H4a1 1 0 010-2h7a1 1 0 010 2z"/><path d="M9 11a3 3 0 113-3 3 3 0 01-3 3zm0-4a1 1 0 101 1 1 1 0 00-1-1zM23 19a3 3 0 113-3 3 3 0 01-3 3zm0-4a1 1 0 101 1 1 1 0 00-1-1zM13 27a3 3 0 113-3 3 3 0 01-3 3zm0-4a1 1 0 101 1 1 1 0 00-1-1z"/><path d="M28 17h-3a1 1 0 010-2h3a1 1 0 010 2zM28 25H15a1 1 0 010-2h13a1 1 0 010 2z"/></g><path fill="none" d="M0 0h32v32H0z"/></svg>