<svg width="0" height="0" class="hidden">
  <symbol xmlns="http://www.w3.org/2000/svg" viewBox="0 0 22 9" id="arrow-right">
    <path d="M.296 5.472H.288h16.956l-.1 2.857a.287.287 0 00-.084.205c0 .077.03.15.084.205l.172.172a.286.286 0 00.407.002l4.193-4.211a.289.289 0 000-.41L17.723.08a.29.29 0 00-.407 0l-.172.173a.288.288 0 000 .405l.113 2.865H.292A.298.298 0 000 3.818v1.37c0 .159.137.284.296.284z"/>
  </symbol>
  <symbol xmlns="http://www.w3.org/2000/svg" viewBox="0 0 19 17" id="cart">
    <path d="M5.526 16.978c-.536 0-1.063-.21-1.461-.607a2.066 2.066 0 01-.453-2.26 2.068 2.068 0 011.915-1.28h.006c.55 0 1.07.214 1.46.602.393.394.609.913.609 1.467.002.84-.5 1.593-1.277 1.917-.258.108-.53.16-.798.16zm.007-2.963h-.004a.887.887 0 00-.628 1.518.89.89 0 10.632-1.518zm8.385 2.963c-.537 0-1.064-.21-1.461-.607a2.065 2.065 0 01-.452-2.26 2.065 2.065 0 011.913-1.28c.546-.04 1.08.218 1.468.603.392.393.607.912.607 1.466a2.064 2.064 0 01-1.274 1.917c-.26.108-.532.16-.8.16zm.006-2.963h-.001c-.331.032-.685.215-.823.548a.89.89 0 10.824-.548zm-11.279.163a.592.592 0 01-.536-.843c.579-1.24 1.627-1.973 3.054-2.15L4.108 5.792a.593.593 0 011.163-.227l1.091 5.578h9.423l1.807-6.771H4.29A4.354 4.354 0 01.007.68.591.591 0 111.178.505a3.165 3.165 0 003.115 2.682h14.07a.591.591 0 01.573.745l-2.123 7.956a.594.594 0 01-.573.44H5.885a.044.044 0 00-.023 0c-1.33 0-2.205.493-2.68 1.51a.593.593 0 01-.537.34z"/>
  </symbol>
  <symbol xmlns="http://www.w3.org/2000/svg" viewBox="0 0 18 17" id="heart">
    <path d="M8.913 16.244a.707.707 0 01-.28-.056c-.353-.15-8.65-3.75-8.65-10.76C.074 2.779 2.19.722 4.801.722c1.743 0 3.266.918 4.112 2.31a4.796 4.796 0 014.112-2.31c2.61 0 4.725 2.058 4.817 4.684 0 7.034-8.297 10.634-8.65 10.783a.71.71 0 01-.28.056zM4.8 2.106c-1.847 0-3.343 1.47-3.408 3.346 0 5.408 6.125 8.663 7.52 9.335 1.395-.672 7.52-3.93 7.52-9.358-.065-1.853-1.563-3.323-3.408-3.323s-3.342 1.47-3.408 3.346a.7.7 0 01-.704.67.7.7 0 01-.705-.67C8.143 3.576 6.646 2.106 4.8 2.106z"/>
  </symbol>
  <symbol xmlns="http://www.w3.org/2000/svg" viewBox="0 0 20 21" id="menu">
    <path d="M2.146 4.88A2.144 2.144 0 010 2.736C0 1.548.96.589 2.146.589c1.187 0 2.146.959 2.146 2.146 0 1.186-.96 2.146-2.146 2.146zm0 7.87A2.145 2.145 0 010 10.603c0-1.186.96-2.145 2.146-2.145a2.145 2.145 0 110 4.292zm0 7.868A2.144 2.144 0 010 18.472c0-1.187.96-2.146 2.146-2.146 1.187 0 2.146.96 2.146 2.146 0 1.187-.96 2.146-2.146 2.146zM10.014 4.88a2.144 2.144 0 01-2.146-2.146c0-1.187.96-2.146 2.146-2.146 1.187 0 2.146.959 2.146 2.146a2.144 2.144 0 01-2.146 2.146zm0 7.869a2.145 2.145 0 01-2.146-2.147c0-1.186.96-2.145 2.146-2.145 1.187 0 2.146.959 2.146 2.145a2.145 2.145 0 01-2.146 2.147zm0 7.868a2.144 2.144 0 01-2.146-2.146c0-1.187.96-2.146 2.146-2.146 1.187 0 2.146.96 2.146 2.146a2.144 2.144 0 01-2.146 2.146zM17.883 4.88a2.144 2.144 0 01-2.146-2.146c0-1.187.96-2.146 2.146-2.146 1.187 0 2.146.959 2.146 2.146 0 1.186-.96 2.146-2.146 2.146zm0 7.869a2.145 2.145 0 01-2.146-2.147c0-1.186.96-2.145 2.146-2.145a2.145 2.145 0 110 4.292zm0 7.868a2.144 2.144 0 01-2.146-2.146c0-1.187.96-2.146 2.146-2.146 1.187 0 2.146.96 2.146 2.146 0 1.187-.96 2.146-2.146 2.146z"/>
  </symbol>
  <symbol xmlns="http://www.w3.org/2000/svg" viewBox="0 0 16 16" id="search">
    <path d="M3.702 6.076c.356-.065.68.13.746.484a2.65 2.65 0 00.78 1.49c.42.388.941.677 1.493.776.325.066.552.39.487.743a.643.643 0 01-.714.516 4.2 4.2 0 01-2.143-1.13 4.164 4.164 0 01-1.136-2.137c-.065-.354.128-.676.487-.742zM6.98-.004c3.465 0 6.279 2.8 6.279 6.257 0 .93-.203 1.812-.568 2.604l2.336 2.036c1.703 1.747.746 3.266.294 3.717-.422.454-1.994 1.415-3.73-.292l-2.06-2.35c-.78.345-1.64.539-2.548.539-3.468 0-6.278-2.802-6.278-6.257 0-3.456 2.807-6.254 6.275-6.254zm5.546 13.517c.293.324 1.126.867 1.88.226.21-.176.634-1.068-.227-1.873l-2.162-1.88a6.269 6.269 0 01-1.363 1.34zM6.98 11.201c2.742 0 4.966-2.216 4.966-4.948S9.722 1.305 6.98 1.305 2.015 3.521 2.015 6.253s2.22 4.948 4.965 4.948z"/>
  </symbol>
  <symbol xmlns="http://www.w3.org/2000/svg" viewBox="0 0 54 53" id="credit">
    <path fill="#a3bbc8" d="M47.261 32.151v8.265a3.84 3.84 0 01-3.834 3.838H4.092a3.84 3.84 0 01-3.834-3.837v-23.62a3.841 3.841 0 013.834-3.839H29.22a.836.836 0 010 1.673H4.092a2.167 2.167 0 00-2.163 2.166v2.884h9.869a.836.836 0 010 1.673H1.929v5.47H29.22a.837.837 0 010 1.673H1.93v11.92c0 1.193.97 2.165 2.162 2.165h39.335a2.167 2.167 0 002.162-2.165V32.15a.836.836 0 111.672 0zM30.056 20.518a.836.836 0 01-.836.837H15.004a.836.836 0 010-1.674H29.22c.462 0 .836.375.836.837zm-9.238 11.555a.836.836 0 01-.836.837H5.71a.836.836 0 010-1.674h14.27c.462 0 .837.375.837.837zm-6.087 3.991a.836.836 0 01-.836.837H5.711a.836.836 0 010-1.673h8.185c.461 0 .835.375.835.836zm32.967-15.28v-4.773c0-.755-.614-1.37-1.37-1.37H34.434c-.755 0-1.37.615-1.37 1.37V26.76c0 .756.615 1.37 1.37 1.37H46.33c.755 0 1.37-.614 1.37-1.37v-3.186a.836.836 0 111.671 0v3.186a3.047 3.047 0 01-3.041 3.044H34.434a3.046 3.046 0 01-3.04-3.044V16.012a3.049 3.049 0 012.392-2.975V7.021c0-3.64 2.959-6.603 6.595-6.603 3.637 0 6.595 2.962 6.595 6.603v6.016a3.048 3.048 0 012.394 2.974v4.773a.836.836 0 11-1.672 0zm-2.394-7.817V7.021a4.931 4.931 0 00-4.923-4.929 4.931 4.931 0 00-4.923 4.929v5.946zm-1.83 7.417a3.099 3.099 0 01-2.257 2.98v2.04a.835.835 0 11-1.671 0v-2.04a3.099 3.099 0 01-2.257-2.98 3.097 3.097 0 013.093-3.095 3.097 3.097 0 013.092 3.095zm-1.672 0c0-.783-.637-1.422-1.42-1.422a1.423 1.423 0 000 2.844c.783 0 1.42-.637 1.42-1.422z"/>
    <path fill="#a3bbc8" d="M44 33.062c5.42 0 9.812 4.386 9.812 9.797 0 5.41-4.393 9.797-9.812 9.797-5.42 0-9.813-4.386-9.813-9.797 0-5.41 4.394-9.797 9.813-9.797z" opacity=".34"/>
  </symbol>
  <symbol xmlns="http://www.w3.org/2000/svg" viewBox="0 0 55 37" id="delivery">
    <path fill="#a3bbc8" d="M10.602 6.12a.786.786 0 01-.786.786H3.69a.786.786 0 010-1.572h6.126c.434 0 .786.352.786.785zm.523 11.006a.785.785 0 01-.785.786H4.738a.785.785 0 010-1.572h5.602c.434 0 .785.352.785.786zm-2.094-4.717a.786.786 0 01-.785.786h-6.65a.786.786 0 010-1.572h6.65c.433 0 .785.352.785.786zm0 11.006a.786.786 0 01-.785.787H7.6a.786.786 0 010-1.573h.645c.433 0 .785.352.785.786zm-3.262 0a.786.786 0 01-.786.787H1.596a.786.786 0 010-1.573h3.387c.434 0 .786.352.786.786zm44.153-12.56V24.94a.786.786 0 01-.785.787h-2.782a4.983 4.983 0 01-4.912 4.192 4.983 4.983 0 01-4.912-4.192H25.28a4.983 4.983 0 01-4.911 4.192 4.983 4.983 0 01-4.912-4.192h-2.42a.786.786 0 01-.784-.787V1.354c0-.434.351-.786.785-.786h6.046a.786.786 0 010 1.572h-5.26v22.014h1.633a4.983 4.983 0 014.912-4.193 4.983 4.983 0 014.911 4.193h8.336V23.03a.785.785 0 111.57 0v1.125h1.346a4.983 4.983 0 014.912-4.193 4.983 4.983 0 014.912 4.193h1.997v-13.3c0-3.591-2.92-6.513-6.509-6.513h-6.657V19.36a.786.786 0 11-1.571 0V2.14h-11.39a.786.786 0 010-1.572H34.4c.434 0 .786.352.786.786v1.415h6.657c4.455 0 8.08 3.628 8.08 8.086zM23.772 24.94a3.409 3.409 0 00-3.404-3.406 3.409 3.409 0 00-3.404 3.406 3.409 3.409 0 003.404 3.407 3.409 3.409 0 003.403-3.407zm21.075 0a3.409 3.409 0 00-3.404-3.406 3.408 3.408 0 00-3.403 3.406v.001a3.41 3.41 0 003.403 3.406 3.409 3.409 0 003.404-3.407zm1.934-14.085v3.235a.786.786 0 01-.786.787h-8.453a.786.786 0 01-.785-.787V6.7c0-.434.351-.786.785-.786h4.301a4.945 4.945 0 014.938 4.941zm-1.571 0a3.372 3.372 0 00-3.367-3.368h-3.515v5.817h6.882zM22.392 24.94a2.028 2.028 0 01-2.024 2.027 2.028 2.028 0 01-2.025-2.027c0-1.117.908-2.027 2.025-2.027 1.116 0 2.024.91 2.024 2.027zm-1.57 0a.455.455 0 10-.91 0 .455.455 0 00.91 0zm22.646 0a2.028 2.028 0 01-2.025 2.027 2.028 2.028 0 01-2.025-2.027 2.03 2.03 0 012.025-2.027c1.117 0 2.025.91 2.025 2.027zm-1.57 0a.455.455 0 10-.91 0 .455.455 0 00.91 0zm4.883-7.128v1.992a.786.786 0 11-1.571 0v-1.992a.786.786 0 111.57 0z"/>
    <path fill="#a3bbc8" d="M44.75 17.406c5.42 0 9.812 4.386 9.812 9.797 0 5.41-4.393 9.797-9.812 9.797-5.42 0-9.813-4.386-9.813-9.797 0-5.41 4.394-9.797 9.813-9.797z" opacity=".34"/>
  </symbol>
  <symbol xmlns="http://www.w3.org/2000/svg" viewBox="0 0 52 54" id="support">
    <path fill="#a3bbc8" d="M41.984 33.594c5.41 0 9.797 4.393 9.797 9.812 0 5.42-4.386 9.813-9.797 9.813-5.41 0-9.797-4.394-9.797-9.813 0-5.42 4.387-9.812 9.797-9.812z" opacity=".34"/>
    <path fill="#a3bbc8" d="M50.02 24.65c0 13.54-11.017 24.556-24.557 24.556A24.349 24.349 0 0110.735 44.3a.937.937 0 111.125-1.5 22.487 22.487 0 0013.603 4.53c12.506 0 22.681-10.174 22.681-22.68 0-4.254-1.184-8.399-3.424-11.988a.938.938 0 011.592-.993 24.495 24.495 0 013.707 12.98zm-25.801 9.896c0 .517-.42.938-.938.938h-9.813a.937.937 0 01-.663-1.601l6.344-6.343c2.06-2.06 3.195-4.8 3.195-7.714 0-2.189-1.78-3.97-3.97-3.97a3.973 3.973 0 00-3.968 3.97.937.937 0 11-1.875 0 5.851 5.851 0 015.844-5.844 5.851 5.851 0 015.844 5.844 12.7 12.7 0 01-3.744 9.039l-4.743 4.743h7.55c.517 0 .937.42.937.938zm15.04-6.438c0 .517-.42.938-.938.938h-2.6v5.5a.938.938 0 01-1.876 0v-5.5h-6.938a.937.937 0 01-.805-1.419l7.875-13.188a.938.938 0 011.742.472l.001.008v7.61a.937.937 0 11-1.875 0v-4.21l-5.286 8.851h5.286v-1.516a.938.938 0 011.875 0v1.516h2.601c.518 0 .938.42.938.938zm4.488-19.51a.938.938 0 01-.915.96l-4.06.096h-.023a.937.937 0 01-.022-1.874l1.843-.043a22.76 22.76 0 00-15.107-5.768c-12.506 0-22.68 10.175-22.68 22.681 0 6.14 2.414 11.891 6.798 16.193a.937.937 0 11-1.312 1.338C3.522 37.525.907 31.298.907 24.65.907 11.11 11.923.094 25.463.094c3.485 0 6.853.715 10.01 2.126a24.405 24.405 0 016.345 4.112l-.042-1.749a.938.938 0 011.875-.045z"/>
  </symbol>
  <symbol xmlns="http://www.w3.org/2000/svg" viewBox="0 0 98 98" id="play">
    <path fill="#a3bbc8" d="M49 0c27.062 0 49 21.938 49 49S76.062 98 49 98 0 76.062 0 49 21.938 0 49 0z" />
    <path fill="#fff" d="M59.684 50.74L43.64 60.536c-.5.306-1.08.46-1.663.46-.48 0-.96-.105-1.399-.316-.972-.47-1.579-1.387-1.579-2.385V38.7c0-.999.607-1.917 1.58-2.386a3.242 3.242 0 013.06.143l16.045 9.798c.822.502 1.315 1.343 1.315 2.241 0 .9-.493 1.741-1.315 2.244z" />
  </symbol>
  <symbol xmlns="http://www.w3.org/2000/svg" viewBox="0 0 7 12" id="next">
    <path d="M1.333 11.687a.55.55 0 01-.41-.183.6.6 0 01.021-.831l4.547-4.475L.944 1.724a.596.596 0 01-.177-.427c0-.145.052-.29.155-.404a.551.551 0 01.8-.023L6.7 5.768l.014.014a.563.563 0 01.113.169h.001a.61.61 0 01.052.244v.003a.62.62 0 01-.053.25v.001a.602.602 0 01-.112.165l-.015.014-4.977 4.899a.55.55 0 01-.39.16z"/>
  </symbol>
  <symbol xmlns="http://www.w3.org/2000/svg" viewBox="0 0 18 18" id="instagram">
    <path d="M3.588 16.94c-1.95-.505-3.114-1.775-3.424-3.75-.23-1.45-.255-8.19.164-9.654C.874 1.629 2.147.51 4.075.193 4.95.05 6.658 0 8.385 0a85.7 85.7 0 014.199.098c1.18.062 2.261.442 3.14 1.284.835.8 1.263 1.802 1.371 2.935.128 1.353.211 7.748-.187 9.247-.533 1.96-1.813 3.12-3.797 3.439-.742.12-2.745.191-4.744.191-2.047 0-4.091-.075-4.779-.254zm.918-15.255c-1.5.172-2.508 1.098-2.747 2.59-.247 1.58-.245 7.492-.06 8.68.19 1.236.89 2.085 2.122 2.43.668.188 2.666.254 4.626.254 1.803 0 3.575-.056 4.24-.13 1.514-.165 2.515-1.097 2.754-2.602.247-1.513.247-7.03.106-8.446-.154-1.513-1.079-2.507-2.575-2.742-.74-.112-2.525-.162-4.3-.162-1.712 0-3.416.047-4.166.128zM4.19 8.597a4.443 4.443 0 014.446-4.406 4.37 4.37 0 014.372 4.413 4.451 4.451 0 01-4.446 4.406A4.366 4.366 0 014.19 8.597zm1.553-.027a2.827 2.827 0 002.803 2.879h.026a2.88 2.88 0 002.876-2.824 2.823 2.823 0 00-2.803-2.88H8.62A2.88 2.88 0 005.744 8.57zm6.444-4.551a1.034 1.034 0 011.03-1.03h.013c.567 0 1.026.464 1.021 1.037a1.043 1.043 0 01-1.043 1.029 1.028 1.028 0 01-1.021-1.036z"/>
  </symbol>
  <symbol xmlns="http://www.w3.org/2000/svg" viewBox="0 0 23 15" id="google+">
    <path d="M6.751 14.35c-1.409-.083-2.69-.525-3.823-1.36C1.466 11.911.545 10.474.158 8.7A6.496 6.496 0 01.02 6.768a7.044 7.044 0 011.62-4.102A7.119 7.119 0 015.505.207a5.8 5.8 0 011.19-.186C6.922.013 7.15 0 7.378 0a6.741 6.741 0 013.398.932c.7.4 1.098.808 1.27.932-.717.705-1.405 1.395-2.108 2.086-.522-.45-1.099-.863-2.099-1.016a4.322 4.322 0 00-.613-.044c-2.007 0-3.688 1.45-4.136 3.353a3.942 3.942 0 00-.1 1.298c.153 1.768 1.337 3.218 2.935 3.736a4.177 4.177 0 001.552.179c.753-.048 1.459-.248 2.098-.67 1.075-.732 1.423-1.878 1.425-2.161H7.154l.021-2.77.007-.117h6.754c.364 2.107.036 4.323-1.275 6.056-.907 1.195-2.114 1.948-3.554 2.32a7.734 7.734 0 01-2.356.236zm11.439-4.054v-.07l.019-2.43h-2.507V7.72l.015-1.816v-.07h2.507l.018-2.437v-.069h1.962v.07l-.02 2.437h2.507v.069l-.014 1.816v.076H20.17l-.019 2.43v.07z"/>
  </symbol>
  <symbol xmlns="http://www.w3.org/2000/svg" viewBox="0 0 18 18" id="search-2">
    <path d="M17.25 17.92a.59.59 0 01-.42-.174l-5.299-5.298a6.501 6.501 0 01-4.178 1.514A6.538 6.538 0 01.822 7.43 6.54 6.54 0 017.353.899a6.538 6.538 0 016.531 6.532 6.503 6.503 0 01-1.513 4.178l5.298 5.298a.591.591 0 010 .84.59.59 0 01-.42.173zM7.352 2.087A5.35 5.35 0 002.01 7.43a5.35 5.35 0 005.343 5.344 5.35 5.35 0 005.345-5.344 5.35 5.35 0 00-5.345-5.344z"/>
  </symbol>
  <symbol xmlns="http://www.w3.org/2000/svg" viewBox="0 0 15 13" id="twitter">
    <path  d="M14.69 2.277a4.39 4.39 0 01-.332.45 5.57 5.57 0 01-1.072 1.015l-.05.093c.013.433-.007.867-.065 1.3a8.717 8.717 0 01-2.374 4.92 7.9 7.9 0 01-4.049 2.249 9.02 9.02 0 01-1.9.196A8.216 8.216 0 01.43 11.234l-.07-.043c.232.024.461.037.689.037a5.95 5.95 0 002.248-.438 5.825 5.825 0 001.4-.817c-1.52-.05-2.465-1.147-2.71-2.035.181.035.363.052.544.052.237 0 .474-.03.712-.085l.044-.022c-.827-.192-1.46-.631-1.894-1.344a2.856 2.856 0 01-.42-1.558c.414.22.841.34 1.302.351-.617-.444-1.029-1.031-1.193-1.777a2.887 2.887 0 01.334-2.123c1.57 1.87 3.57 2.897 6.021 3.066a8.282 8.282 0 00-.047-.323 2.84 2.84 0 01.448-1.914c.472-.735 1.14-1.19 1.996-1.328.182-.03.36-.045.533-.045.768 0 1.446.294 2.028.863.036.032.067.05.108.05a.175.175 0 00.045-.007 5.783 5.783 0 001.71-.652l.04-.022c-.214.68-.64 1.206-1.247 1.596a5.667 5.667 0 001.638-.439z"/>
  </symbol>
  <symbol xmlns="http://www.w3.org/2000/svg" viewBox="0 0 9 16" id="facebook">
    <path  d="M6.19.125c.413 0 .828.022 1.24.04.268.011.537.05.789.077l-.02 2.485h-.197c-.272 0-.545-.003-.818-.003a17.9 17.9 0 00-.613.008c-.659.022-1.144.27-1.177 1.092-.021.592-.036 1.9-.037 1.97l1.34.001c.327 0 .647 0 .87-.002H8.1c-.133.955-.255 1.87-.388 2.792H5.357l-.053 6.971h-2.89l.053-6.982H.103l.021-2.776H2.5l.002-.208c.004-.56-.003-1.119.018-1.678.008-.351.027-.713.09-1.065.16-.85.555-1.563 1.267-2.073C4.499.33 5.208.144 5.96.127c.076-.002.153-.002.23-.002z"/>
  </symbol>
  <symbol xmlns="http://www.w3.org/2000/svg" viewBox="0 0 14 14" id="silhouette">
    <path fill="#436372" d="M13.382 13.166H.55a.42.42 0 01-.428-.411c0-2.977 2.066-5.498 4.89-6.308-1.01-.622-1.681-1.71-1.681-2.948C3.33 1.571 4.96.003 6.966.003c2.004 0 3.636 1.568 3.636 3.496 0 1.237-.671 2.326-1.682 2.948 2.825.81 4.89 3.331 4.89 6.308a.42.42 0 01-.428.411zm-12.39-.823H12.94c-.22-2.984-2.815-5.347-5.973-5.347-3.159 0-5.754 2.363-5.974 5.347zM6.966.826c-1.533 0-2.78 1.199-2.78 2.673 0 1.475 1.247 2.674 2.78 2.674 1.533 0 2.78-1.2 2.78-2.674S8.499.826 6.966.826z"/>
  </symbol>
  <symbol xmlns="http://www.w3.org/2000/svg" viewBox="0 0 18 13" id="mail">
    <path fill="#436372" d="M16.714 12.994H1.286a1.308 1.308 0 01-.928-.381A1.21 1.21 0 010 11.757V1.858C0 1.176.577.621 1.286.621h15.428C17.423.62 18 1.176 18 1.858v9.899a1.21 1.21 0 01-.397.893 1.308 1.308 0 01-.889.344zM.857 1.858v9.728l5.966-5.742L.858 1.826v.032zm15.68 10.311l-6.074-5.844-.726.489c-.22.149-.479.223-.737.223-.259 0-.517-.074-.737-.223l-.727-.49-6.073 5.845zm.606-10.31c0-.011 0-.022-.002-.033l-5.964 4.018 5.966 5.742zm-8.389 4.28a.448.448 0 00.492 0l6.965-4.693H1.788z"/>
  </symbol>
  <symbol xmlns="http://www.w3.org/2000/svg" viewBox="0 0 18 15" id="message">
    <path fill="#436372" d="M3 15a.446.446 0 01-.164-.031.411.411 0 01-.265-.38v-2.071H1.286c-.71 0-1.286-.553-1.286-1.233V1.424C0 .744.577.19 1.286.19h15.428C17.423.191 18 .744 18 1.424v9.861c0 .68-.577 1.233-1.286 1.233H5.766L3.303 14.88A.438.438 0 013 15zM1.286 1.013a.42.42 0 00-.429.41v9.862a.42.42 0 00.429.411H3a.42.42 0 01.428.411v1.49l1.857-1.78c.08-.077.19-.12.303-.12h11.126a.42.42 0 00.429-.412V1.424a.42.42 0 00-.429-.411zm4.771 5.342a.63.63 0 01-.643.616.63.63 0 01-.642-.616.63.63 0 01.642-.617.63.63 0 01.643.617zm3.586 0A.63.63 0 019 6.97a.63.63 0 01-.643-.616A.63.63 0 019 5.738a.63.63 0 01.643.617zm3.343 0a.63.63 0 01-.643.616.63.63 0 01-.643-.616.63.63 0 01.643-.617.63.63 0 01.643.617z"/>
  </symbol>
  <symbol xmlns="http://www.w3.org/2000/svg" viewBox="0 0 31 44" id="address">
    <path d="M14.597 43.81l-6.584-2.918-5.674 2.51a1.652 1.652 0 01-1.864-.355c-.49-.5-.613-1.23-.313-1.862l4.994-10.516a1.107 1.107 0 011.986-.023 1.1 1.1 0 01-.014 1.01L2.785 40.8l4.32-1.914a2.227 2.227 0 011.806.001l6.583 2.916h.011l6.585-2.917a2.222 2.222 0 011.804 0l4.32 1.914-4.342-9.145a1.093 1.093 0 01.174-1.275 1.107 1.107 0 011.798.288l4.994 10.518c.3.63.177 1.36-.313 1.86a1.648 1.648 0 01-1.863.356l-5.665-2.51-6.594 2.917a2.22 2.22 0 01-1.806 0zm-1.947-7.6L3.102 20.283A13.891 13.891 0 011.54 13.81c.023-3.642 1.464-7.083 4.06-9.689a13.903 13.903 0 019.702-4.12 13.897 13.897 0 019.999 4 13.76 13.76 0 014.158 9.893 13.691 13.691 0 01-1.562 6.39L18.349 36.21a3.293 3.293 0 01-2.849 1.61 3.294 3.294 0 01-2.85-1.61zm2.683-34.012C8.983 2.285 3.785 7.5 3.747 13.823a11.525 11.525 0 001.269 5.366l9.53 15.896c.29.487.764.54.954.54.19 0 .663-.053.955-.54l9.528-15.896a11.526 11.526 0 001.27-5.295 11.59 11.59 0 00-3.501-8.33 11.694 11.694 0 00-8.42-3.366zm-4.884 11.697c0-2.773 2.266-5.027 5.051-5.027s5.05 2.254 5.05 5.027c0 2.772-2.265 5.026-5.05 5.026-2.785 0-5.05-2.254-5.05-5.026zm2.206 0a2.842 2.842 0 002.845 2.83 2.84 2.84 0 002.844-2.83 2.84 2.84 0 00-2.844-2.831 2.841 2.841 0 00-2.845 2.83z"/>
  </symbol>
  <symbol xmlns="http://www.w3.org/2000/svg" viewBox="0 0 37 35" id="email">
    <path d="M.975 34.918a.958.958 0 01-.67-.272.93.93 0 01-.277-.659L0 13.786v-.017a.927.927 0 01.41-.754L5.73 9.4V5.56a.94.94 0 01.949-.932h6.067l5.217-3.546a.96.96 0 011.079.001l5.185 3.545h6.093a.94.94 0 01.947.932v3.882l5.297 3.621c.19.13.316.315.373.519.021.046.034.13.034.184l.028 20.17a.94.94 0 01-.946.933l-35.077.048zm2.773-1.867l29.478-.041-14.712-11.224zm-1.828-.965l11.443-8.73-11.466-7.793zm21.72-8.748l11.46 8.744-.023-16.565zM7.626 17.19l7.308 4.968 3-2.288a.96.96 0 011.16 0l2.977 2.272 7.301-4.993V6.493H7.626zm-5.013-3.408l3.118 2.12v-4.24zm28.654 2.072l3.028-2.07-3.028-2.07zM16.08 4.629h4.828L18.5 2.984zm-3.994 12.303a.94.94 0 01-.948-.933.94.94 0 01.948-.932h12.83a.94.94 0 01.946.932.94.94 0 01-.946.933zm0-4.847a.94.94 0 01-.948-.932.94.94 0 01.948-.932h12.83a.94.94 0 01.946.932.94.94 0 01-.946.932z"/>
  </symbol>
  <symbol xmlns="http://www.w3.org/2000/svg" viewBox="0 0 37 45" id="phone">
    <path d="M13.44 39.922c0-2.754 2.27-4.995 5.06-4.995 2.79 0 5.06 2.241 5.06 4.995 0 2.755-2.27 4.995-5.06 4.995-2.79 0-5.06-2.24-5.06-4.995zm1.975 0c0 1.68 1.384 3.045 3.084 3.045 1.701 0 3.086-1.366 3.086-3.045 0-1.679-1.385-3.045-3.086-3.045-1.7 0-3.084 1.366-3.084 3.045zM26.88 28.586c0-2.755 2.27-4.995 5.06-4.995 2.789 0 5.059 2.24 5.059 4.995 0 2.754-2.27 4.995-5.06 4.995-2.79 0-5.059-2.241-5.059-4.995zm1.976 0c0 1.68 1.383 3.046 3.084 3.046 1.7 0 3.084-1.367 3.084-3.046 0-1.68-1.384-3.046-3.084-3.046-1.701 0-3.084 1.367-3.084 3.046zm-15.417 0c0-2.755 2.27-4.995 5.06-4.995 2.79 0 5.06 2.24 5.06 4.995 0 2.754-2.27 4.995-5.06 4.995-2.79 0-5.06-2.241-5.06-4.995zm1.975 0c0 1.68 1.384 3.046 3.084 3.046 1.701 0 3.086-1.367 3.086-3.046 0-1.68-1.385-3.046-3.086-3.046-1.7 0-3.084 1.367-3.084 3.046zM0 28.586c0-2.755 2.27-4.995 5.059-4.995 2.79 0 5.06 2.24 5.06 4.995 0 2.754-2.27 4.995-5.06 4.995-2.79 0-5.06-2.241-5.06-4.995zm1.974 0c0 1.68 1.384 3.046 3.085 3.046 1.7 0 3.084-1.367 3.084-3.046 0-1.68-1.383-3.046-3.084-3.046s-3.085 1.367-3.085 3.046zm24.907-11.337c0-2.754 2.27-4.995 5.06-4.995 2.789 0 5.059 2.241 5.059 4.995 0 2.755-2.27 4.995-5.06 4.995-2.79 0-5.059-2.24-5.059-4.995zm1.976 0c0 1.68 1.383 3.045 3.084 3.045 1.7 0 3.084-1.365 3.084-3.045 0-1.679-1.384-3.045-3.084-3.045-1.701 0-3.084 1.366-3.084 3.045zm-15.417 0c0-2.754 2.27-4.995 5.06-4.995 2.79 0 5.06 2.241 5.06 4.995 0 2.755-2.27 4.995-5.06 4.995-2.79 0-5.06-2.24-5.06-4.995zm1.975 0c0 1.68 1.384 3.045 3.084 3.045 1.701 0 3.086-1.365 3.086-3.045 0-1.679-1.385-3.045-3.086-3.045-1.7 0-3.084 1.366-3.084 3.045zM0 17.249c0-2.754 2.27-4.995 5.059-4.995 2.79 0 5.06 2.241 5.06 4.995 0 2.755-2.27 4.995-5.06 4.995-2.79 0-5.06-2.24-5.06-4.995zm1.974 0c0 1.68 1.384 3.045 3.085 3.045 1.7 0 3.084-1.365 3.084-3.045 0-1.679-1.383-3.045-3.084-3.045s-3.085 1.366-3.085 3.045zM26.881 5.913c0-2.755 2.27-4.995 5.06-4.995C34.73.918 37 3.158 37 5.913c0 2.754-2.27 4.995-5.06 4.995-2.79 0-5.059-2.24-5.059-4.995zm1.976 0c0 1.68 1.383 3.046 3.084 3.046 1.7 0 3.084-1.367 3.084-3.046 0-1.68-1.384-3.046-3.084-3.046-1.701 0-3.084 1.367-3.084 3.046zm-15.417 0c0-2.755 2.27-4.995 5.06-4.995 2.79 0 5.06 2.24 5.06 4.995 0 2.754-2.27 4.995-5.06 4.995-2.79 0-5.06-2.24-5.06-4.995zm1.975 0c0 1.68 1.384 3.046 3.084 3.046 1.701 0 3.086-1.367 3.086-3.046 0-1.68-1.385-3.046-3.086-3.046-1.7 0-3.084 1.367-3.084 3.046zM0 5.913C0 3.158 2.27.918 5.059.918c2.79 0 5.06 2.24 5.06 4.995 0 2.754-2.27 4.995-5.06 4.995-2.79 0-5.06-2.24-5.06-4.995zm1.974 0c0 1.68 1.384 3.046 3.085 3.046 1.7 0 3.084-1.367 3.084-3.046 0-1.68-1.383-3.046-3.084-3.046S1.974 4.234 1.974 5.913z"/>
  </symbol>
</svg>